G04*
G04 #@! TF.GenerationSoftware,Altium Limited,Altium Designer,20.2.6 (244)*
G04*
G04 Layer_Color=8388736*
%FSLAX42Y42*%
%MOMM*%
G71*
G04*
G04 #@! TF.SameCoordinates,69541536-4934-4505-9BE5-47F4DBCBE851*
G04*
G04*
G04 #@! TF.FilePolarity,Negative*
G04*
G01*
G75*
%ADD19R,2.05X2.90*%
%ADD20R,7.40X7.05*%
%ADD21R,3.00X1.25*%
%ADD22R,3.50X2.55*%
%ADD23R,1.20X2.55*%
%ADD24R,1.70X1.50*%
%ADD25O,3.20X2.40*%
%ADD26R,3.20X2.40*%
%ADD27O,3.70X3.20*%
G04:AMPARAMS|DCode=28|XSize=3.7mm|YSize=3.2mm|CornerRadius=0.25mm|HoleSize=0mm|Usage=FLASHONLY|Rotation=0.000|XOffset=0mm|YOffset=0mm|HoleType=Round|Shape=RoundedRectangle|*
%AMROUNDEDRECTD28*
21,1,3.70,2.70,0,0,0.0*
21,1,3.20,3.20,0,0,0.0*
1,1,0.50,1.60,-1.35*
1,1,0.50,-1.60,-1.35*
1,1,0.50,-1.60,1.35*
1,1,0.50,1.60,1.35*
%
%ADD28ROUNDEDRECTD28*%
D19*
X472Y3350D02*
D03*
Y3660D02*
D03*
X2214Y3503D02*
D03*
Y3813D02*
D03*
D20*
X4648Y508D02*
D03*
Y2286D02*
D03*
Y3175D02*
D03*
Y4064D02*
D03*
Y1397D02*
D03*
D21*
X4008Y280D02*
D03*
Y736D02*
D03*
Y2058D02*
D03*
Y2514D02*
D03*
Y2947D02*
D03*
Y3403D02*
D03*
Y3836D02*
D03*
Y4292D02*
D03*
Y1169D02*
D03*
Y1625D02*
D03*
D22*
X1473Y3779D02*
D03*
D23*
X1703Y3174D02*
D03*
X1473D02*
D03*
X1243D02*
D03*
D24*
X2684Y3956D02*
D03*
Y3766D02*
D03*
X3607Y4159D02*
D03*
Y3969D02*
D03*
X943Y3670D02*
D03*
Y3480D02*
D03*
X3607Y1467D02*
D03*
Y1277D02*
D03*
Y2381D02*
D03*
Y2191D02*
D03*
Y3245D02*
D03*
Y3055D02*
D03*
Y603D02*
D03*
Y413D02*
D03*
D25*
X356Y2337D02*
D03*
Y2083D02*
D03*
Y1829D02*
D03*
Y1575D02*
D03*
Y1321D02*
D03*
Y1067D02*
D03*
Y813D02*
D03*
Y559D02*
D03*
X2642Y2337D02*
D03*
Y2083D02*
D03*
Y1829D02*
D03*
Y1575D02*
D03*
Y1321D02*
D03*
Y1067D02*
D03*
Y813D02*
D03*
D26*
Y559D02*
D03*
D27*
X5690Y483D02*
D03*
Y991D02*
D03*
Y1499D02*
D03*
X5715Y2743D02*
D03*
Y3251D02*
D03*
Y3759D02*
D03*
D28*
X5690Y2007D02*
D03*
X5715Y4267D02*
D03*
M02*
