M48
;Layer_Color=9474304
;FILE_FORMAT=4:2
METRIC,LZ
;TYPE=PLATED
T1F00S00C0.76
T2F00S00C1.10
%
T01
X00569Y000483
Y000991
Y001499
Y002007
X005715Y002743
Y003251
Y003759
Y004267
T02
X000356Y000559
Y000813
Y001067
Y001321
X002642
Y001067
Y000813
Y000559
Y001575
Y001829
Y002083
Y002337
X000356
Y002083
Y001829
Y001575
M30
