G04*
G04 #@! TF.GenerationSoftware,Altium Limited,Altium Designer,20.2.6 (244)*
G04*
G04 Layer_Color=65535*
%FSLAX42Y42*%
%MOMM*%
G71*
G04*
G04 #@! TF.SameCoordinates,69541536-4934-4505-9BE5-47F4DBCBE851*
G04*
G04*
G04 #@! TF.FilePolarity,Positive*
G04*
G01*
G75*
%ADD10C,0.25*%
%ADD11C,0.20*%
%ADD12C,0.25*%
D10*
X4021Y844D02*
G03*
X4021Y844I-12J0D01*
G01*
Y2622D02*
G03*
X4021Y2622I-12J0D01*
G01*
Y3510D02*
G03*
X4021Y3510I-12J0D01*
G01*
Y4399D02*
G03*
X4021Y4399I-12J0D01*
G01*
Y1733D02*
G03*
X4021Y1733I-12J0D01*
G01*
X1151Y3174D02*
G03*
X1151Y3174I-12J0D01*
G01*
D11*
X1772Y2599D02*
Y2969D01*
X1209Y2599D02*
X1772D01*
X1209D02*
Y2959D01*
X2792Y199D02*
Y2969D01*
X197Y199D02*
X2792D01*
X197Y2969D02*
X2792D01*
X197Y199D02*
Y2969D01*
X5537Y2134D02*
Y2159D01*
X5563Y2184D01*
X5436Y305D02*
Y2184D01*
Y305D02*
X7010D01*
Y2184D01*
X5563D02*
X7010D01*
X5436D02*
X5969D01*
Y305D02*
Y2184D01*
X5563Y4394D02*
Y4420D01*
X5588Y4445D01*
X5461Y2565D02*
Y4445D01*
Y2565D02*
X7036D01*
Y4445D01*
X5588D02*
X7036D01*
X5461D02*
X5994D01*
Y2565D02*
Y4445D01*
X314Y3280D02*
X350D01*
X247Y3346D02*
X314Y3280D01*
X631D02*
X697Y3346D01*
X595Y3280D02*
X631D01*
X247Y3346D02*
Y3730D01*
X350D01*
X595D02*
X697D01*
Y3346D02*
Y3730D01*
X2055Y3433D02*
X2091D01*
X1989Y3499D02*
X2055Y3433D01*
X2372D02*
X2439Y3499D01*
X2336Y3433D02*
X2372D01*
X1989Y3499D02*
Y3883D01*
X2091D01*
X2336D02*
X2439D01*
Y3499D02*
Y3883D01*
X4218Y173D02*
X4248D01*
X4218D02*
Y843D01*
X4248D01*
X4218Y1951D02*
X4248D01*
X4218D02*
Y2621D01*
X4248D01*
X4218Y2840D02*
X4248D01*
X4218D02*
Y3510D01*
X4248D01*
X4218Y3729D02*
X4248D01*
X4218D02*
Y4399D01*
X4248D01*
X4218Y1062D02*
X4248D01*
X4218D02*
Y1732D01*
X4248D01*
X1808Y3322D02*
Y3632D01*
X1138Y3322D02*
Y3632D01*
X1808D01*
X1138Y3322D02*
X1808D01*
D12*
X273Y4155D02*
X247Y4181D01*
X197D01*
X171Y4155D01*
Y4054D01*
X197Y4028D01*
X247D01*
X273Y4054D01*
X400Y4028D02*
Y4181D01*
X324Y4105D01*
X425D01*
X953Y4019D02*
X928Y4045D01*
X877D01*
X851Y4019D01*
Y3918D01*
X877Y3892D01*
X928D01*
X953Y3918D01*
X1004Y4019D02*
X1029Y4045D01*
X1080D01*
X1105Y4019D01*
Y3994D01*
X1080Y3968D01*
X1054D01*
X1080D01*
X1105Y3943D01*
Y3918D01*
X1080Y3892D01*
X1029D01*
X1004Y3918D01*
X2693Y4307D02*
X2668Y4332D01*
X2617D01*
X2592Y4307D01*
Y4205D01*
X2617Y4180D01*
X2668D01*
X2693Y4205D01*
X2845Y4180D02*
X2744D01*
X2845Y4281D01*
Y4307D01*
X2820Y4332D01*
X2769D01*
X2744Y4307D01*
X2012Y4308D02*
X1987Y4333D01*
X1936D01*
X1911Y4308D01*
Y4206D01*
X1936Y4181D01*
X1987D01*
X2012Y4206D01*
X2063Y4181D02*
X2114D01*
X2089D01*
Y4333D01*
X2063Y4308D01*
X3515Y827D02*
Y979D01*
X3592D01*
X3617Y953D01*
Y903D01*
X3592Y877D01*
X3515D01*
X3566D02*
X3617Y827D01*
X3769Y979D02*
X3668D01*
Y903D01*
X3718Y928D01*
X3744D01*
X3769Y903D01*
Y852D01*
X3744Y827D01*
X3693D01*
X3668Y852D01*
X3515Y1689D02*
Y1841D01*
X3592D01*
X3617Y1816D01*
Y1765D01*
X3592Y1740D01*
X3515D01*
X3566D02*
X3617Y1689D01*
X3744D02*
Y1841D01*
X3668Y1765D01*
X3769D01*
X3515Y2603D02*
Y2756D01*
X3592D01*
X3617Y2730D01*
Y2680D01*
X3592Y2654D01*
X3515D01*
X3566D02*
X3617Y2603D01*
X3668Y2730D02*
X3693Y2756D01*
X3744D01*
X3769Y2730D01*
Y2705D01*
X3744Y2680D01*
X3718D01*
X3744D01*
X3769Y2654D01*
Y2629D01*
X3744Y2603D01*
X3693D01*
X3668Y2629D01*
X3515Y3468D02*
Y3620D01*
X3592D01*
X3617Y3595D01*
Y3544D01*
X3592Y3519D01*
X3515D01*
X3566D02*
X3617Y3468D01*
X3769D02*
X3668D01*
X3769Y3570D01*
Y3595D01*
X3744Y3620D01*
X3693D01*
X3668Y3595D01*
X3514Y4383D02*
Y4535D01*
X3591D01*
X3616Y4510D01*
Y4459D01*
X3591Y4434D01*
X3514D01*
X3565D02*
X3616Y4383D01*
X3667D02*
X3718D01*
X3692D01*
Y4535D01*
X3667Y4510D01*
X211Y3208D02*
Y3081D01*
X236Y3056D01*
X287D01*
X312Y3081D01*
Y3208D01*
X465Y3056D02*
X363D01*
X465Y3157D01*
Y3183D01*
X439Y3208D01*
X389D01*
X363Y3183D01*
X1111Y4178D02*
Y4051D01*
X1136Y4025D01*
X1187D01*
X1212Y4051D01*
Y4178D01*
X1263Y4025D02*
X1314D01*
X1288D01*
Y4178D01*
X1263Y4152D01*
X5232Y729D02*
Y831D01*
X5207Y856D01*
X5156D01*
X5131Y831D01*
Y729D01*
X5156Y704D01*
X5207D01*
X5182Y755D02*
X5232Y704D01*
X5207D02*
X5232Y729D01*
X5385Y856D02*
X5283D01*
Y780D01*
X5334Y805D01*
X5359D01*
X5385Y780D01*
Y729D01*
X5359Y704D01*
X5309D01*
X5283Y729D01*
X5232Y1616D02*
Y1717D01*
X5207Y1742D01*
X5156D01*
X5131Y1717D01*
Y1616D01*
X5156Y1590D01*
X5207D01*
X5182Y1641D02*
X5232Y1590D01*
X5207D02*
X5232Y1616D01*
X5359Y1590D02*
Y1742D01*
X5283Y1666D01*
X5385D01*
X5232Y2550D02*
Y2652D01*
X5207Y2677D01*
X5156D01*
X5131Y2652D01*
Y2550D01*
X5156Y2525D01*
X5207D01*
X5182Y2575D02*
X5232Y2525D01*
X5207D02*
X5232Y2550D01*
X5283Y2652D02*
X5309Y2677D01*
X5359D01*
X5385Y2652D01*
Y2626D01*
X5359Y2601D01*
X5334D01*
X5359D01*
X5385Y2575D01*
Y2550D01*
X5359Y2525D01*
X5309D01*
X5283Y2550D01*
X5232Y3436D02*
Y3538D01*
X5207Y3563D01*
X5156D01*
X5131Y3538D01*
Y3436D01*
X5156Y3411D01*
X5207D01*
X5182Y3462D02*
X5232Y3411D01*
X5207D02*
X5232Y3436D01*
X5385Y3411D02*
X5283D01*
X5385Y3513D01*
Y3538D01*
X5359Y3563D01*
X5309D01*
X5283Y3538D01*
X5207Y4323D02*
Y4424D01*
X5182Y4450D01*
X5131D01*
X5105Y4424D01*
Y4323D01*
X5131Y4297D01*
X5182D01*
X5156Y4348D02*
X5207Y4297D01*
X5182D02*
X5207Y4323D01*
X5258Y4297D02*
X5309D01*
X5283D01*
Y4450D01*
X5258Y4424D01*
X5655Y2371D02*
X5604D01*
X5630D01*
Y2244D01*
X5604Y2219D01*
X5579D01*
X5554Y2244D01*
X5808Y2219D02*
X5706D01*
X5808Y2320D01*
Y2346D01*
X5782Y2371D01*
X5731D01*
X5706Y2346D01*
X5681Y4632D02*
X5630D01*
X5655D01*
Y4505D01*
X5630Y4479D01*
X5605D01*
X5579Y4505D01*
X5731Y4479D02*
X5782D01*
X5757D01*
Y4632D01*
X5731Y4606D01*
M02*
