G04*
G04 #@! TF.GenerationSoftware,Altium Limited,Altium Designer,20.2.6 (244)*
G04*
G04 Layer_Color=8421504*
%FSLAX42Y42*%
%MOMM*%
G71*
G04*
G04 #@! TF.SameCoordinates,69541536-4934-4505-9BE5-47F4DBCBE851*
G04*
G04*
G04 #@! TF.FilePolarity,Positive*
G04*
G01*
G75*
%ADD13R,1.85X2.70*%
%ADD14R,7.20X6.85*%
%ADD15R,2.80X1.05*%
%ADD16R,3.30X2.35*%
%ADD17R,1.00X2.35*%
%ADD18R,1.50X1.30*%
D13*
X472Y3350D02*
D03*
Y3660D02*
D03*
X2214Y3503D02*
D03*
Y3813D02*
D03*
D14*
X4648Y508D02*
D03*
Y2286D02*
D03*
Y3175D02*
D03*
Y4064D02*
D03*
Y1397D02*
D03*
D15*
X4008Y280D02*
D03*
Y736D02*
D03*
Y2058D02*
D03*
Y2514D02*
D03*
Y2947D02*
D03*
Y3403D02*
D03*
Y3836D02*
D03*
Y4292D02*
D03*
Y1169D02*
D03*
Y1625D02*
D03*
D16*
X1473Y3779D02*
D03*
D17*
X1703Y3174D02*
D03*
X1473D02*
D03*
X1243D02*
D03*
D18*
X2684Y3956D02*
D03*
Y3766D02*
D03*
X3607Y4159D02*
D03*
Y3969D02*
D03*
X943Y3670D02*
D03*
Y3480D02*
D03*
X3607Y1467D02*
D03*
Y1277D02*
D03*
Y2381D02*
D03*
Y2191D02*
D03*
Y3245D02*
D03*
Y3055D02*
D03*
Y603D02*
D03*
Y413D02*
D03*
M02*
